<svg xmlns="http://www.w3.org/2000/svg" xmlns:xlink="http://www.w3.org/1999/xlink" width="500" zoomAndPan="magnify" viewBox="0 0 375 374.999991" height="500" preserveAspectRatio="xMidYMid meet" version="1.0"><defs><clipPath id="84f640dcf3"><path d="M 63.5 112 L 311.75 112 L 311.75 206 L 63.5 206 Z M 63.5 112 " clip-rule="nonzero"/></clipPath></defs><rect x="-37.5" width="450" fill="#ffffff" y="-37.499999" height="449.999989" fill-opacity="1"/><rect x="-37.5" width="450" fill="#ffffff" y="-37.499999" height="449.999989" fill-opacity="1"/><rect x="-37.5" width="450" fill="#ffffff" y="-37.499999" height="449.999989" fill-opacity="1"/><g clip-path="url(#84f640dcf3)"><path fill="#3a6625" d="M 311.601562 201.667969 C 311.148438 201.53125 296.59375 197.085938 288.964844 189.179688 C 281.214844 181.148438 278.53125 184.417969 271.679688 185.3125 C 264.824219 186.203125 262.144531 197.804688 257.972656 198.695312 C 253.800781 199.589844 252.011719 197.804688 248.136719 201.671875 C 244.261719 205.539062 240.984375 203.457031 248.734375 194.53125 C 256.480469 185.609375 262.738281 183.824219 259.460938 180.847656 C 256.183594 177.875 254.695312 172.222656 248.136719 169.246094 C 241.578125 166.273438 242.175781 162.429688 239.492188 157.957031 C 236.8125 153.480469 238.003906 143.664062 232.042969 149.613281 C 226.085938 155.5625 197.769531 181.445312 197.769531 181.445312 C 198.367188 186.503906 193 173.113281 187.636719 171.328125 C 182.273438 169.546875 179.890625 171.03125 172.140625 177.578125 C 164.394531 184.121094 154.855469 183.824219 156.046875 190.667969 C 157.238281 197.507812 144.722656 197.058594 139.65625 203.527344 C 134.589844 210.003906 138.167969 201.078125 142.042969 195.128906 C 145.914062 189.179688 142.636719 187.691406 139.65625 189.476562 C 136.675781 191.261719 129.226562 191.261719 147.109375 183.824219 C 164.988281 176.386719 159.625 174.007812 164.09375 169.546875 C 168.566406 165.085938 181.082031 165.578125 177.804688 159.085938 C 174.523438 152.589844 176.613281 148.421875 174.226562 147.53125 C 171.84375 146.640625 178.101562 145.152344 171.84375 146.640625 C 165.585938 148.125 165.585938 148.125 165.585938 148.125 C 165.585938 148.125 150.980469 156.160156 157.238281 150.210938 C 163.5 144.261719 171.84375 141.285156 170.949219 135.929688 C 170.054688 130.574219 171.246094 118.976562 162.304688 123.734375 C 153.367188 128.492188 125.351562 160.621094 119.691406 163.890625 C 119.683594 163.890625 119.679688 163.898438 119.671875 163.90625 C 118.660156 164.488281 118.164062 165.675781 118.492188 166.804688 C 118.609375 167.226562 118.765625 167.664062 118.957031 168.128906 C 120.148438 170.972656 119.917969 174.246094 119.535156 176.410156 C 120.367188 178.035156 120.871094 179.386719 120.585938 179.957031 C 119.691406 181.742188 125.054688 189.476562 115.515625 179.066406 C 115.378906 178.910156 115.253906 178.769531 115.117188 178.625 C 114.75 178.546875 114.351562 178.367188 113.9375 178.042969 C 111.566406 176.167969 109.621094 177.25 106.242188 175.464844 C 105.257812 174.949219 104.03125 174.726562 102.773438 174.679688 C 101.902344 174.652344 101.050781 174.925781 100.347656 175.441406 C 90.386719 182.804688 70.003906 199.140625 63.664062 201.671875 C 63.664062 201.671875 91.675781 169.546875 108.363281 162.109375 C 125.054688 154.671875 163.199219 104.992188 176.613281 113.320312 C 190.023438 121.652344 212.671875 152.886719 218.035156 150.804688 C 223.402344 148.722656 231.746094 131.46875 244.261719 141.285156 C 256.777344 151.101562 262.441406 162.40625 276.148438 168.058594 C 289.667969 173.632812 311.003906 200.894531 311.601562 201.667969 " fill-opacity="1" fill-rule="nonzero"/></g></svg>